<?xml version="1.0" encoding="utf-8"?>
<!-- Generator: Adobe Illustrator 23.0.1, SVG Export Plug-In . SVG Version: 6.00 Build 0)  -->
<svg version="1.1" id="Layer_1" xmlns="http://www.w3.org/2000/svg" xmlns:xlink="http://www.w3.org/1999/xlink" x="0px" y="0px"
	 viewBox="0 0 180 60" style="enable-background:new 0 0 180 60;" xml:space="preserve">
<style type="text/css">
	.st0{fill:#004992;}
	.st1{fill-rule:evenodd;clip-rule:evenodd;fill:#004992;}
	.st2{fill-rule:evenodd;clip-rule:evenodd;fill:#E20613;}
</style>
<g>
	<g>
		<path class="st0" d="M71.3,51.2l11.1-27H89l11.1,27h-6.7l-2.6-6.2H80.6L78,51.2H71.3z M85.7,30.7l-3.8,9.4h7.7L85.7,30.7z"/>
	</g>
	<g>
		<path class="st0" d="M101.8,51.2v-4.8H114c2,0,3.3-0.2,3.9-0.6c0.9-0.6,1.4-1.4,1.4-2.5c0-1.3-0.6-2.3-1.7-2.9
			c-0.6-0.3-1.6-0.5-3-0.5h-5c-3,0-5.2-0.6-6.6-1.7c-0.8-0.7-1.5-1.6-2-2.6c-0.5-1.1-0.7-2.2-0.7-3.4c0-1.9,0.6-3.6,1.7-5.2
			c1.1-1.5,2.8-2.4,5.2-2.6c0.8-0.1,2-0.1,3.6-0.1h13.3V29h-12c-1.8,0-3,0.1-3.6,0.2c-1.2,0.3-1.8,1.2-1.8,2.7
			c0,1.3,0.5,2.2,1.5,2.6c0.7,0.3,1.8,0.5,3.4,0.5h4.3c2.2,0,3.9,0.2,4.9,0.6c1.9,0.6,3.2,1.8,3.9,3.4c0.6,1.3,0.9,2.7,0.9,4.2
			c0,1.6-0.4,3.1-1.1,4.4c-1.1,1.8-2.6,2.9-4.8,3.3c-1,0.2-2.6,0.3-4.6,0.3H101.8z"/>
	</g>
	<g>
		<path class="st0" d="M150.5,24.2v27h-5.7V40h-10.4v11.2h-5.7v-27h5.7v11h10.4v-11H150.5z"/>
	</g>
	<g>
		<path class="st0" d="M175,24.2V29h-7.5c-2,0-3.4,0.1-4.3,0.4c-0.9,0.3-1.6,0.8-2.2,1.6c-0.4,0.5-0.7,1.1-0.8,1.6
			c-0.1,0.5-0.3,1.5-0.4,2.8H175v4.8h-15.1c0.2,2.3,0.9,4,2,4.9c1.2,0.9,3.1,1.4,5.9,1.4h7.2v4.8h-7.5c-2,0-3.8-0.1-5.3-0.4
			c-2.4-0.4-4.3-1.5-5.8-3.2c-2-2.5-3.1-5.8-3.1-10.1c0-4.7,1.4-8.4,4.3-11c1-0.9,2-1.5,3.2-1.8c1.1-0.3,2.6-0.5,4.5-0.5H175z"/>
	</g>
	<path class="st1" d="M20.7,26.3L7.6,29.2l9.2,6.9L20.7,26.3z M16.1,37.8l1.1,9.8l5.2-5.1L16.1,37.8z M10.8,51.1h16.4l2.2-5.5
		l-11-8.3l29.3-17l-31,15.8L10.8,51.1z M29.4,45.6h12l2.2,5.5H60L47.8,20.3L29.4,45.6z"/>
	<polygon class="st2" points="20.7,26.3 27.2,10 43.6,10 47.8,20.3 	"/>
	<path class="st0" d="M56.2,11.4h1.1c0.2,0,0.3,0,0.4,0c0.1,0,0.2,0,0.2,0.1c0.1,0.1,0.2,0.2,0.3,0.3c0.1,0.1,0.1,0.3,0.1,0.4
		c0,0.2,0,0.3-0.1,0.4c-0.1,0.1-0.2,0.2-0.3,0.3c0.1,0,0.2,0.1,0.2,0.2c0,0.1,0.1,0.2,0.1,0.4l0,0.5c0,0.1,0,0.2,0,0.2
		c0,0.1,0.1,0.1,0.1,0.1v0.1H58c0-0.1-0.1-0.2-0.1-0.4v0l0-0.4c0-0.2-0.1-0.3-0.1-0.4c-0.1-0.1-0.2-0.1-0.5-0.1h-0.6v1.3h-0.4V11.4z
		 M56.6,11.7v1h0.7c0.2,0,0.4,0,0.5-0.1c0.1-0.1,0.2-0.2,0.2-0.4c0-0.2,0-0.3-0.1-0.4c-0.1-0.1-0.3-0.1-0.5-0.1H56.6z"/>
	<path class="st0" d="M59,11.1c-0.4-0.4-1-0.7-1.7-0.7c-0.7,0-1.2,0.3-1.7,0.7c-0.4,0.4-0.7,1-0.7,1.7c0,0.7,0.3,1.2,0.7,1.7
		c0.4,0.4,1,0.7,1.7,0.7c0.7,0,1.2-0.3,1.7-0.7c0.4-0.4,0.7-1,0.7-1.7C59.7,12.2,59.4,11.6,59,11.1 M57.3,10.1
		c0.8,0,1.4,0.3,1.9,0.8c0.5,0.5,0.8,1.2,0.8,1.9c0,0.8-0.3,1.4-0.8,1.9c-0.5,0.5-1.2,0.8-1.9,0.8c-0.8,0-1.4-0.3-1.9-0.8
		c-0.5-0.5-0.8-1.2-0.8-1.9c0-0.8,0.3-1.4,0.8-1.9C55.9,10.4,56.6,10.1,57.3,10.1z"/>
</g>
</svg>
